<?xml version="1.0" standalone="no"?>
<!DOCTYPE svg PUBLIC "-//W3C//DTD SVG 20010904//EN"
 "http://www.w3.org/TR/2001/REC-SVG-20010904/DTD/svg10.dtd">
<svg version="1.0" xmlns="http://www.w3.org/2000/svg"
 width="424.000000pt" height="424.000000pt" viewBox="0 0 424.000000 424.000000"
 preserveAspectRatio="xMidYMid meet">

<g transform="translate(0.000000,424.000000) scale(0.100000,-0.100000)"
fill="#000000" stroke="none">
<path d="M1896 4230 c-418 -48 -822 -220 -1131 -480 -237 -200 -410 -419 -545
-692 -114 -230 -183 -472 -211 -738 -23 -216 4 -541 60 -741 l18 -64 54 -7
c30 -3 80 -6 112 -7 48 -1 57 2 57 17 0 9 -16 153 -36 320 -36 295 -36 304
-21 368 18 70 70 158 120 200 18 15 61 41 97 58 57 26 76 30 150 30 74 0 93
-4 150 -30 36 -17 79 -43 97 -58 38 -32 99 -122 108 -159 4 -15 11 -30 16 -33
8 -5 192 86 212 105 4 4 -9 41 -29 82 -77 153 -250 289 -416 325 -123 26 -276
13 -380 -34 -27 -11 -48 -17 -48 -13 0 23 56 167 104 264 271 559 808 949
1431 1038 50 7 164 13 255 13 91 0 206 -6 255 -13 268 -38 548 -144 773 -290
l94 -61 56 49 c32 27 72 65 90 84 l33 34 -78 55 c-266 185 -552 303 -869 359
-136 23 -447 34 -578 19z"/>
<path d="M1977 2725 c-167 -36 -338 -174 -415 -335 -65 -137 -79 -278 -42
-424 29 -115 73 -189 165 -282 64 -65 97 -89 165 -122 177 -85 363 -85 540 0
114 55 230 168 284 278 62 128 81 280 52 418 -47 220 -248 421 -468 468 -77
16 -203 16 -281 -1z m298 -264 c76 -35 114 -68 159 -135 182 -274 -58 -635
-382 -577 -117 21 -212 93 -267 203 -62 125 -55 259 21 374 42 63 79 96 146
130 102 52 219 54 323 5z"/>
<path d="M3477 2725 c-167 -36 -338 -174 -415 -335 -65 -137 -79 -278 -42
-424 29 -115 73 -189 165 -282 124 -125 262 -184 435 -184 87 0 170 16 238 46
l54 24 -7 -28 c-16 -63 -89 -234 -140 -327 -256 -463 -700 -801 -1209 -919
-163 -38 -271 -51 -436 -51 -447 0 -863 151 -1208 439 -81 67 -95 76 -110 64
-9 -7 -48 -39 -87 -72 -38 -33 -72 -62 -74 -63 -7 -5 49 -61 130 -129 281
-235 650 -400 1035 -461 151 -24 477 -24 628 0 355 57 685 195 964 404 106 80
289 259 382 374 290 361 460 843 460 1310 0 190 -29 416 -75 572 l-16 57 -129
0 -130 0 10 -26 c16 -42 12 -44 -37 -22 -104 46 -264 60 -386 33z m298 -264
c76 -35 114 -68 159 -135 182 -274 -58 -635 -382 -577 -117 21 -212 93 -267
203 -62 125 -55 259 21 374 42 63 79 96 146 130 102 52 219 54 323 5z"/>
</g>
</svg>
